PathFileType	4	(X/Y/Z)	C:/Users/opensim2020/Desktop/walking_exp_matlab/subject01_walking08_straight_04.trc																																																																																																																															
DataRate	CameraRate	NumFrames	NumMarkers	Units	OrigDataRate	OrigDataStartFrame	OrigNumFrames																																																																																																																											
100	100	5	43	mm	100	3787	256																																																																																																																											
Frame#	Time	LFHD			RFHD			LBHD			RBHD			C7			T10			CLAV			STRN			RBAK			LSHO			LUPA			LELB			LFRM			LWRA			LWRB			LFIN			RSHO			RUPA			RELB			RFRM			RWRA			RWRB			RFIN			LASI			RASI			LPSI			RPSI			LTHI			LKNE			LTIB			LANK			LHEE			LTOE			RTHI			RKNE			RTIB			RANK			RHEE			RTOE			*39			*40			*41			*42		
		X1	Y1	Z1	X2	Y2	Z2	X3	Y3	Z3	X4	Y4	Z4	X5	Y5	Z5	X6	Y6	Z6	X7	Y7	Z7	X8	Y8	Z8	X9	Y9	Z9	X10	Y10	Z10	X11	Y11	Z11	X12	Y12	Z12	X13	Y13	Z13	X14	Y14	Z14	X15	Y15	Z15	X16	Y16	Z16	X17	Y17	Z17	X18	Y18	Z18	X19	Y19	Z19	X20	Y20	Z20	X21	Y21	Z21	X22	Y22	Z22	X23	Y23	Z23	X24	Y24	Z24	X25	Y25	Z25	X26	Y26	Z26	X27	Y27	Z27	X28	Y28	Z28	X29	Y29	Z29	X30	Y30	Z30	X31	Y31	Z31	X32	Y32	Z32	X33	Y33	Z33	X34	Y34	Z34	X35	Y35	Z35	X36	Y36	Z36	X37	Y37	Z37	X38	Y38	Z38	X39	Y39	Z39	X40	Y40	Z40	X41	Y41	Z41	X42	Y42	Z42	X43	Y43	Z43
																																																																																																																																		
129	1.28	-144.67148	1653.95483	-1546.34436	-124.80541	1661.3844	-1434.4342	-264.13443	1619.60571	-1531.21802	-246.22964	1626.77673	-1411.73816	-313.59369	1422.13623	-1481.74902	-346.08588	1128.18201	-1465.4386	-171.14452	1353.36975	-1482.3313	-127.28756	1199.29053	-1481.51294	-365.47314	1229.03723	-1394.83484	-233.28145	1379.70435	-1643.92639	-278.74289	1193.77661	-1718.06763	-307.95224	1046.04578	-1708.07056	-286.10635	934.62164	-1730.85718	-222.80643	810.01904	-1710.73242	-279.40506	812.33557	-1733.75366	-242.33614	734.80029	-1739.14417	-230.52431	1386.46094	-1330.82397	-274.24695	1189.46558	-1217.46118	-262.43604	1063.27075	-1206.19104	-198.15775	958.74969	-1179.08655	-84.71525	876.50415	-1206.78491	-122.19619	863.18048	-1163.91833	-60.52998	804.24408	-1169.67969	-163.60197	924.56219	-1561.66199	-179.50505	922.82428	-1343.99036	-353.69165	933.76312	-1526.49304	-362.23102	941.72235	-1382.7771	-124.24375	605.56158	-1625.02856	-100.48874	476.31726	-1609.10803	-106.95679	288.3259	-1623.93689	-69.67789	70.36965	-1580.62683	-106.1051	33.77671	-1526.10864	79.15652	59.80687	-1582.22534	-287.57233	595.79755	-1299.57776	-310.84305	436.18582	-1324.87634	-416.59344	293.78763	-1322.57727	-510.42145	108.84008	-1372.82031	-568.68518	87.67887	-1422.80835	-387.70499	36.14784	-1375.70459	-135.33371	1694.91992	-1457.30615	-1973.09265	1023.47809	3101.90039	-2012.5802	1021.99164	3140.75293	NaN	NaN	NaN
130	1.29	-136.95482	1654.26868	-1548.1759	-117.3241	1661.60925	-1436.28943	-256.39282	1619.86584	-1533.41101	-238.87663	1626.81116	-1413.88892	-306.00858	1422.15149	-1484.40063	-337.79086	1127.98608	-1467.46814	-163.49095	1353.51208	-1484.39758	-119.14435	1199.62476	-1483.50085	-357.73618	1228.54749	-1397.82092	-225.22232	1379.37	-1646.35547	-269.88989	1193.09314	-1720.39246	-298.6481	1045.23486	-1710.53271	-276.52176	933.81073	-1733.16345	-212.91728	809.43683	-1712.68677	-269.42068	811.53253	-1735.85254	-232.20351	734.25165	-1741.15161	-223.39117	1386.2113	-1332.93164	-267.5137	1189.04663	-1219.89661	-255.81711	1062.77759	-1208.62744	-191.89763	957.98956	-1181.05579	-78.89181	875.36328	-1208.48108	-116.22048	862.23792	-1165.80286	-54.90028	803.17615	-1171.08862	-154.77567	923.96582	-1562.96448	-170.65634	922.56958	-1345.47766	-344.82999	933.74091	-1528.58813	-353.50195	941.31885	-1384.43555	-116.28686	605.67914	-1626.26416	-93.3603	476.26813	-1610.14063	-101.09422	288.66663	-1623.65454	-66.50362	70.03316	-1581.12891	-104.35017	34.77979	-1526.68884	81.71552	55.73802	-1582.07434	-278.48505	595.43652	-1300.62317	-301.95706	435.69977	-1325.19202	-410.52475	295.69897	-1322.73108	-508.18353	112.14436	-1372.31653	-566.57739	92.34604	-1422.37732	-387.24725	36.10301	-1375.34851	-128.01265	1695.05969	-1459.03955	-1973.18127	1023.33093	3101.9585	-2012.46716	1021.9834	3140.70801	NaN	NaN	NaN
131	1.3	-129.21661	1654.70752	-1550.11365	-109.80229	1661.85913	-1438.11401	-248.6344	1620.3634	-1535.67236	-231.37195	1627.14941	-1416.08252	-298.09537	1422.38025	-1486.88196	-329.76221	1128.14026	-1469.3844	-155.86916	1353.995	-1486.52356	-110.92088	1200.18579	-1485.58301	-350.08142	1228.28491	-1400.68225	-217.17249	1379.16284	-1648.6759	-260.89975	1192.62573	-1722.71045	-289.1821	1044.61047	-1713.01526	-266.68506	933.20874	-1735.52649	-202.81961	809.07465	-1714.68408	-259.20337	810.99133	-1738.20618	-221.83803	733.94733	-1743.27197	-216.2668	1386.27014	-1335.20337	-260.72232	1188.83362	-1222.48364	-249.13089	1062.52734	-1211.0415	-185.74535	957.40222	-1183.23499	-72.73241	874.56097	-1210.00732	-110.80355	861.36945	-1167.35254	-49.56175	802.22906	-1172.57654	-146.0168	923.7948	-1564.34949	-161.81277	922.44153	-1347.02429	-336.01544	934.2005	-1530.25903	-344.70068	941.05023	-1385.8949	-108.80421	606.42499	-1628.36914	-85.9278	477.41724	-1611.08459	-94.18586	289.47812	-1624.90381	-64.52032	69.88122	-1581.91284	-103.35115	35.9211	-1527.47449	83.55507	51.32298	-1582.59277	-268.75638	595.23523	-1301.72766	-292.12152	435.26385	-1325.55566	-404.26315	297.54132	-1322.91064	-505.36737	115.88785	-1371.96472	-563.85956	97.64359	-1422.4762	-386.82416	36.08271	-1375.08411	-120.39809	1695.45422	-1460.86218	-1973.16406	1023.51239	3101.82007	-2012.55225	1022.12897	3140.68286	NaN	NaN	NaN
132	1.31	-121.4756	1655.09912	-1552.18494	-102.25967	1662.19751	-1440.1427	-240.96494	1620.86279	-1537.93079	-223.87805	1627.59412	-1418.33081	-290.1922	1422.77368	-1489.31287	-321.2702	1128.10803	-1470.86121	-148.13147	1354.59314	-1488.64368	-102.72425	1200.83276	-1487.69727	-342.37424	1228.14929	-1403.40308	-209.22708	1379.16797	-1650.9325	-251.87753	1192.41345	-1725.02112	-279.58942	1044.19812	-1715.55066	-256.59406	932.92969	-1737.93262	-192.52734	809.06342	-1716.84216	-248.7946	810.75983	-1740.69507	-211.1564	733.78265	-1745.40967	-209.04984	1386.46594	-1337.28271	-253.94221	1188.83691	-1225.13513	-242.51486	1062.51086	-1213.68469	-179.70288	957.14197	-1185.54688	-67.16939	873.61914	-1211.64453	-105.29149	860.67542	-1169.36633	-44.49631	801.27893	-1174.04578	-137.3768	923.96478	-1565.88342	-153.10439	922.59052	-1348.66284	-327.46967	934.94836	-1531.64575	-335.92432	940.93567	-1387.14221	-101.6402	607.35138	-1630.3761	-78.29196	478.63708	-1611.88867	-87.16338	290.15997	-1626.83264	-63.12292	69.63223	-1582.495	-101.83211	36.0125	-1527.69678	84.78617	47.50613	-1583.43738	-258.41608	595.12	-1302.76453	-281.61829	434.94278	-1325.46606	-397.27914	300.24127	-1323.32898	-502.17114	120.10793	-1371.69165	-560.55957	103.4288	-1422.7561	-386.51199	36.35605	-1374.92419	-112.62315	1695.96802	-1462.80933	-1973.06262	1023.41296	3101.9375	-2012.58789	1022.10162	3140.57227	NaN	NaN	NaN
133	1.32	-113.88576	1655.48682	-1554.32568	-94.87163	1662.59131	-1442.21973	-233.37123	1621.27271	-1540.24231	-216.4707	1628.03381	-1420.58484	-282.51254	1423.05249	-1491.67212	-313.27884	1128.36548	-1472.69446	-140.36485	1355.12085	-1490.73682	-94.59066	1201.53955	-1489.76282	-334.56857	1228.19177	-1406.0968	-201.39445	1379.39294	-1653.15149	-242.83113	1192.45984	-1727.37219	-269.95731	1044.1167	-1718.05627	-246.33188	932.94525	-1740.36719	-182.02031	809.29675	-1719.04785	-238.07719	810.79852	-1743.25488	-200.28206	733.95801	-1747.79663	-201.87346	1386.78638	-1339.41321	-247.21242	1188.95374	-1227.93542	-235.97931	1062.76025	-1216.68457	-173.74165	957.07782	-1187.93396	-61.7607	872.87878	-1213.41882	-100.20518	860.16089	-1171.43494	-39.74224	800.42249	-1175.56653	-128.92578	924.61707	-1567.47583	-144.29581	922.92249	-1350.35071	-319.08542	935.65009	-1532.7522	-327.21527	940.9939	-1388.27429	-94.14003	608.34735	-1631.5835	-70.78522	479.07578	-1612.92554	-81.39657	289.99231	-1628.51978	-61.69336	69.38621	-1582.79529	-101.22318	36.94485	-1528.24622	85.93357	45.09527	-1584.35071	-247.847	595.07874	-1303.40015	-270.70258	434.83273	-1325.27881	-390.00101	302.92386	-1323.74915	-498.45377	124.91743	-1371.66431	-556.37524	109.94492	-1423.20142	-386.02811	36.29105	-1374.85388	-104.91627	1696.48633	-1464.93555	-1973.1958	1023.52332	3101.80444	-2012.57263	1022.06757	3140.63428	NaN	NaN	NaN
